# xmcd
#
# Track frame offsets:
# 150
# 27857
# 47004
# 98668
# 116493
# 138590
# 157404
# 201326
# 227605
# 250272
#
# Disc length: 4243 seconds
#
#
# Revision: 5
# Processed by: cddbd v1.5.1PL0 Copyright (c) Steve Scherf et al.
# Submitted via: FreeRIP 2.90 
#
DISCID=8710910a
DTITLE=Stevie Ray Vaughan - Blues At Sunrise
DYEAR=2000
DGENRE=Blues
TTITLE0=Ain't Gone 'N' Give Up On Love
TTITLE1=Leave My Girl Alone
TTITLE2=Tin Pan Alley [live - with Johnny Copeland]
TTITLE3=Chitlins Con Carne
TTITLE4=The Things (That) I Used To Do
TTITLE5=The Sky Is Crying
TTITLE6=Texas Flood
TTITLE7=May I Have A Talk With You
TTITLE8=Dirty Pool
TTITLE9=Blues At Sunrise [live - with Albert King]
EXTD=
EXTT0=
EXTT1=
EXTT2=
EXTT3=
EXTT4=
EXTT5=
EXTT6=
EXTT7=
EXTT8=
EXTT9=
PLAYORDER=
